<?xml version="1.0" encoding="UTF-8" standalone="no"?>
<svg
   xmlns:dc="http://purl.org/dc/elements/1.1/"
   xmlns:cc="http://creativecommons.org/ns#"
   xmlns:rdf="http://www.w3.org/1999/02/22-rdf-syntax-ns#"
   xmlns:svg="http://www.w3.org/2000/svg"
   xmlns="http://www.w3.org/2000/svg"
   xmlns:sodipodi="http://sodipodi.sourceforge.net/DTD/sodipodi-0.dtd"
   xmlns:inkscape="http://www.inkscape.org/namespaces/inkscape"
   version="1.1"
   id="Layer_1"
   width="550"
   height="725"
   viewBox="0 0 550 724.99999"
   overflow="visible"
   enable-background="new 0 0 557.922 702.992"
   xml:space="preserve"
   sodipodi:docname="FIFA_World_Cup_2006.svg"
   style="overflow:visible"
   inkscape:version="1.0.1 (3bc2e813f5, 2020-09-07)"><metadata
     id="metadata117"><rdf:RDF><cc:Work
         rdf:about=""><dc:format>image/svg+xml</dc:format><dc:type
           rdf:resource="http://purl.org/dc/dcmitype/StillImage" /><dc:title></dc:title></cc:Work></rdf:RDF></metadata><defs
     id="defs115" /><sodipodi:namedview
     pagecolor="#ffffff"
     bordercolor="#666666"
     borderopacity="1"
     objecttolerance="10"
     gridtolerance="10"
     guidetolerance="10"
     inkscape:pageopacity="0"
     inkscape:pageshadow="2"
     inkscape:window-width="1920"
     inkscape:window-height="1017"
     id="namedview113"
     showgrid="false"
     inkscape:zoom="1.3428318"
     inkscape:cx="158.39572"
     inkscape:cy="385.34776"
     inkscape:window-x="-8"
     inkscape:window-y="-8"
     inkscape:window-maximized="1"
     inkscape:current-layer="g110"
     inkscape:document-rotation="0"
     showguides="true"
     inkscape:guide-bbox="true" /><g
     id="g110"
     transform="translate(0,0.00199561)"><path
       d="m 190.78512,420.38783 -3.13257,0.0231 c -90.109427,0 -161.736637,-72.95533 -161.736637,-162.7245 0,-62.35191 34.704706,-117.13987 90.403227,-149.26237 1.81296,-1.04556 1.17664,-2.76095 -0.59888,-2.0589 -24.883748,9.8392 -56.066023,32.76106 -74.878093,58.88646 C 20.817063,193.06165 10,223.22405 10,257.68648 10,358.36276 88.199081,437.23691 187.65255,437.23691 h 3.13257 z"
       id="path6"
       inkscape:connector-curvature="0"
       style="clip-rule:evenodd;opacity:1;fill:#ffbe10;fill-opacity:1;fill-rule:evenodd;stroke-width:1.00967"
       sodipodi:nodetypes="ccsssssscc" /><path
       d="m 190.78512,406.11357 -3.13257,0.0232 c -81.86289,0 -146.975154,-66.15689 -146.975154,-147.45017 0,-28.46946 7.01098,-54.5749 23.034517,-80.68081 14.825538,-24.19627 35.176741,-43.16192 59.036787,-56.46214 1.77021,-0.98675 0.67846,-2.10695 -0.40244,-1.6519 -26.335926,11.08733 -52.117716,30.37177 -69.33975,54.16729 -17.271073,23.60724 -28.009315,53.09216 -28.009315,84.62756 0,92.62674 74.654976,164.33551 162.655355,164.33551 l 3.13257,-0.0231 z"
       id="path8"
       inkscape:connector-curvature="0"
       style="clip-rule:evenodd;opacity:1;fill:#d61920;fill-opacity:1;fill-rule:evenodd;stroke-width:1.00967"
       sodipodi:nodetypes="ccscsscsccc" /><path
       d="M 128.61582,133.59529 C 78.643625,154.16927 40.118892,201.8009 39.808012,258.13585 39.340732,342.8123 104.93108,407.19098 187.65255,407.19098 l 3.13257,-0.0232 v -14.8887 l -3.13257,0.0865 c -73.42703,0 -132.755595,-61.20002 -132.755595,-134.22986 0,-52.16735 29.31412,-97.58034 74.559085,-123.31244 0.80601,-0.45841 0.24953,-1.67673 -0.84022,-1.22806 z"
       id="path10"
       inkscape:connector-curvature="0"
       style="clip-rule:evenodd;opacity:1;fill:#231f20;fill-opacity:1;fill-rule:evenodd;stroke-width:1.00967"
       sodipodi:nodetypes="ssccccsss" /><path
       d="m 297.54945,260.42045 c 0,-59.96015 -48.75718,-108.66524 -108.78384,-108.66524 -60.1712,0 -108.835603,48.70402 -108.835603,108.66524 0,59.93753 48.664403,108.69003 108.835603,108.69003 60.02666,0 108.78384,-48.7525 108.78384,-108.69003 z"
       id="path12"
       inkscape:connector-curvature="0"
       style="clip-rule:evenodd;opacity:1;fill:#ffffff;fill-rule:evenodd;stroke-width:1.07805" /><path
       d="m 381.77803,136.22389 c 0,37.62933 -30.45861,68.11488 -68.05462,68.11488 -37.47208,0 -68.08533,-30.48555 -68.08533,-68.11488 0,-37.431223 30.61325,-67.830678 68.08533,-67.830678 37.59601,-0.0012 68.05462,30.399455 68.05462,67.830678 z"
       id="path34"
       inkscape:connector-curvature="0"
       style="clip-rule:evenodd;opacity:1;fill:#fbfbfb;fill-opacity:1;fill-rule:evenodd;stroke-width:1.17988" /><path
       d="m 315.23127,207.66708 c -49.35501,0 -72.22691,-37.25251 -72.22691,-73.38141 0,-36.128907 26.62202,-60.323551 50.07087,-67.26976 -1.87758,-8.481286 -7.14785,-19.608798 -12.63018,-24.524058 -0.96854,-0.868353 -0.25317,-2.314598 1.54266,-1.38805 10.55114,5.443783 16.94437,13.748502 20.73825,23.647848 0.76459,-0.325196 1.80673,-0.219464 1.80673,-0.219464 -1.20018,-13.408348 -7.00854,-29.804663 -16.45079,-39.520582 -2.27288,-2.338752 -0.2168,-2.690623 0.88635,-1.991104 13.50233,8.562011 24.27142,23.567573 25.55545,40.803307 0.44607,-0.227986 1.55128,-0.08269 1.55128,-0.08269 0,-20.667699 -5.14247,-37.876456 -15.69217,-51.777134 -1.32389,-1.7444 0.1442,-2.6618202 1.74827,-1.333962 14.59092,12.07846 24.08165,33.765553 24.32832,53.999491 33.4824,6.00319 60.28765,36.230558 60.28765,68.068128 0,31.83757 -22.16079,74.96944 -71.5158,74.96944 z m 59.50604,-72.0017 c 0,32.00163 -26.95348,59.80604 -59.41556,59.80604 -31.03337,0 -60.56354,-24.25055 -60.56354,-61.5331 0,-31.83314 28.2085,-58.305671 60.56354,-58.305671 32.46208,-0.001 59.41556,28.199581 59.41556,60.032731 z m -51.82474,-35.6237 c 0.29537,0 0.58803,0.013 0.87737,0.0386 -2.58756,3.95399 -1.91441,9.22656 -1.37938,10.67545 0.84965,-4.50906 4.64797,-7.3595 7.191,-8.1268 1.90255,1.73212 3.10354,4.18676 3.10354,6.90298 0,5.23799 -4.45254,9.78401 -9.79253,9.78401 -5.37987,0 -9.84469,-4.54602 -9.84469,-9.78401 0,-5.22998 4.46482,-9.49018 9.84469,-9.49018 z m -34.47683,12.87285 c 0,5.52382 4.33498,9.78001 9.84878,9.78001 5.33589,0 9.82423,-4.25619 9.82423,-9.78001 0,-2.81307 -1.29038,-5.33816 -3.30964,-7.07551 -3.1731,1.28014 -6.42805,3.72684 -7.36754,8.21095 -0.55925,-0.95466 -1.44732,-7.17108 1.37354,-10.6141 -0.17255,-0.009 -0.34611,-0.0135 -0.52059,-0.0135 -5.5138,0 -9.84878,4.24516 -9.84878,9.49217 z m 63.82099,16.48305 c 0,-10.0919 -3.42959,-21.02434 -6.27861,-24.9473 0.5205,1.99162 2.2248,7.71997 2.2248,12.89278 0,23.54829 -27.55263,24.10803 -30.17713,24.10803 -19.6495,0 -39.12536,-11.14085 -44.11966,-14.60614 2.23838,8.70618 16.06809,49.99489 42.28343,49.99489 11.5296,0 18.56392,-5.22638 25.59292,-13.98646 7.23961,-8.63272 10.47425,-20.59397 10.47425,-33.4558 z"
       id="path4"
       inkscape:connector-curvature="0"
       style="clip-rule:evenodd;opacity:1;fill:#ef9e47;fill-opacity:1;fill-rule:evenodd;stroke-width:1.01105"
       sodipodi:nodetypes="szcssccssccssczzssssssscccssssssscccssscsscsss" /><path
       d="m 187.97491,137.37027 c -68.64675,0 -124.345693,54.86644 -124.345693,122.69506 0,67.79439 55.698943,122.69923 124.345693,122.69923 32.16486,0 65.81291,-8.45809 87.95006,-28.38252 24.9636,-22.4739 33.01435,-50.98339 35.25731,-88.34204 3.51115,-58.48195 -45.87417,-128.66973 -123.20737,-128.66973 z m -7.4853,221.67364 c -54.39435,-4.66233 -97.493884,-47.92137 -92.219718,-107.39616 4.752341,-53.59036 52.893648,-94.72043 107.346718,-90.08252 54.33401,4.62777 95.63102,53.28899 90.88307,106.88449 -4.77699,53.92324 -51.74672,95.2453 -106.01007,90.59419 z"
       id="path14"
       inkscape:connector-curvature="0"
       style="clip-rule:evenodd;opacity:1;fill:#006dab;fill-rule:evenodd;stroke-width:1.04496"
       sodipodi:nodetypes="ssscsssssss" /><path
       d="m 348.18574,446.38005 c 0,-46.68963 -37.93233,-84.60512 -84.85424,-84.60512 -46.9437,0 -84.88967,37.91549 -84.88967,84.60512 0,47.08319 37.94597,85.0014 84.88967,85.0014 46.92054,0 84.85424,-37.91685 84.85424,-85.0014 z"
       id="path2"
       inkscape:connector-curvature="0"
       style="clip-rule:evenodd;opacity:1;fill:#fdfdfd;fill-opacity:1;fill-rule:evenodd;stroke-width:1.36255" /><path
       d="m 200.91771,211.89422 c -10.85641,2.79064 -18.7591,4.79363 -28.67447,8.80435 l 4.17874,6.07235 c 18.82603,-5.46182 26.2346,-6.92499 41.73252,-8.48756 l 1.89849,-0.16648 0.85739,-0.0702 -1.21379,-2.57738 c -0.70378,-1.33182 -6.48967,-12.45233 -21.60036,-28.17635 l -0.68069,-0.70101 -7.74367,1.88128 c 5.93514,5.30399 8.93668,10.15252 12.82661,15.5282 -6.30993,-2.48913 -18.05863,-6.87475 -25.48196,-8.90167 -12.23169,-3.33982 -26.58244,-3.93237 -26.71798,-3.97048 h -0.32327 l -4.92054,5.79091 3.1906,0.3139 c 17.0353,2.09099 36.96231,7.77743 52.67238,14.66014 z"
       id="path16"
       inkscape:connector-curvature="0"
       style="clip-rule:evenodd;opacity:1;fill:#006dab;fill-rule:evenodd;stroke-width:1.00342"
       sodipodi:nodetypes="cccccccccccsccccc" /><path
       d="m 215.90362,281.56772 c -13.26113,-1.12653 -25.98419,-5.6574 -36.13092,-12.10566 -14.61617,-8.94744 -27.45222,-22.49783 -34.14864,-37.74008 -2.25805,-4.75433 -3.48867,-9.34183 -4.21751,-14.10646 -0.65211,1.27277 -1.32394,3.02539 -2.07351,4.64414 -4.7162,10.63519 -10.74182,28.14083 -12.46905,47.76876 -0.42508,4.9922 -2.77644,35.28107 18.26244,50.47596 7.01468,4.97777 13.24453,7.91769 23.00352,8.77341 25.17344,2.13568 53.92163,-15.38231 73.48001,-32.49149 9.81289,-8.7971 18.11316,-17.62612 22.72153,-23.51933 -14.85255,6.682 -33.50378,9.59617 -48.42787,8.30075 z"
       id="path18"
       inkscape:connector-curvature="0"
       style="clip-rule:evenodd;opacity:1;fill:#006dab;fill-rule:evenodd;stroke-width:1.03324" /><path
       d="m 251.04621,236.59149 c -4.38531,-4.82823 -9.83585,-9.57586 -11.82271,-11.1614 2.32926,-0.99908 5.9228,-1.97244 10.27627,-2.24721 l -2.09881,-6.01405 c -8.33711,-0.87612 -15.21565,0.38941 -22.39072,2.72224 7.6331,15.74552 9.8487,21.26685 13.70494,37.5496 2.22092,-2.05451 3.22035,-3.1713 5.12666,-4.59554 -0.77907,-6.0446 -2.40166,-12.36732 -4.54808,-17.84935 7.99865,6.87113 13.90516,14.22543 18.87656,21.71084 0,0 2.19505,-3.51872 3.27854,-5.74309 0,0 -4.2302,-7.57619 -10.40265,-14.37204 z"
       id="path20"
       inkscape:connector-curvature="0"
       style="clip-rule:evenodd;opacity:1;fill:#006dab;fill-rule:evenodd;stroke-width:1.00342"
       sodipodi:nodetypes="scccccccccs" /><path
       d="m 293.34126,413.13027 c 0,-15.91256 -13.07465,-29.08729 -29.15417,-29.08729 -16.07149,0 -29.12105,13.17473 -29.12105,29.08729 0,16.21042 13.04956,29.40821 29.12105,29.40821 16.07952,0 29.15417,-13.19779 29.15417,-29.40821 z"
       id="path24"
       inkscape:connector-curvature="0"
       style="clip-rule:evenodd;opacity:1;fill:#000000;fill-opacity:1;fill-rule:evenodd;stroke-width:1.00342" /><path
       d="m 286.35893,435.16258 c 0,-5.01837 -4.06908,-9.10006 -9.27464,-9.10006 -5.03389,0 -9.20035,4.08169 -9.20035,9.10006 0,5.31622 4.16646,9.41797 9.20035,9.41797 5.20556,0 9.27464,-4.10175 9.27464,-9.41797 z"
       id="path28"
       inkscape:connector-curvature="0"
       style="clip-rule:evenodd;opacity:1;fill:#ffe902;fill-opacity:1;fill-rule:evenodd;stroke-width:1.00342" /><path
       d="m 530.15755,320.6035 c 0,-67.15959 -54.56287,-121.69824 -122.05659,-121.69824 -67.52508,0 -122.10756,54.53865 -122.10756,121.69824 0,67.72572 54.58248,122.26826 122.10756,122.26826 67.49176,0 122.05659,-54.54059 122.05659,-122.26826 z"
       id="path2-8"
       inkscape:connector-curvature="0"
       style="clip-rule:evenodd;overflow:visible;opacity:1;fill:#ffffff;fill-opacity:1;fill-rule:evenodd;stroke-width:1.95993" /><path
       d="m 273.35601,486.43725 c -3.76486,5.70433 -8.35299,11.01955 -13.31058,15.79523 -5.8491,5.7274 -12.0004,10.97242 -19.13659,15.77517 l -2.35732,1.63368 3.15747,0.86547 0.66061,0.19556 c 6.69847,1.64572 13.46119,2.47609 20.35743,2.47609 8.63812,0 17.06341,-1.30874 25.25376,-3.93326 l 1.11741,-0.37206 1.68466,-0.57565 -1.05116,-1.45717 c -4.16143,-5.80162 -7.36509,-11.68546 -9.94126,-17.38177 -1.55314,-4.1529 -2.8593,-8.31682 -4.00984,-12.62215 l -0.77407,-2.98555 z"
       id="path30"
       inkscape:connector-curvature="0"
       style="clip-rule:evenodd;opacity:1;fill:#fac10f;fill-opacity:1;fill-rule:evenodd;stroke-width:1.00342" /><path
       d="m 243.25729,437.12637 c -2.75089,3.85965 -1.54354,29.13421 13.07411,40.75221 3.57931,-17.84621 -3.3354,-35.34429 -13.07411,-40.75221 z"
       id="path24-8"
       inkscape:connector-curvature="0"
       style="clip-rule:evenodd;overflow:visible;opacity:1;fill:#b7d233;fill-opacity:1;fill-rule:evenodd;stroke-width:1.00342"
       sodipodi:nodetypes="ccc" /><path
       d="m 277.40339,445.07173 c -2.13154,0 -4.16294,-0.54915 -5.993,-1.55914 l -0.49506,-0.2948 -4.44329,0.92272 0.13017,1.28456 c 0.75648,4.19106 1.00346,7.6499 1.00346,11.12471 0,13.44479 -4.60461,25.1474 -9.38832,36.14332 -1.82783,3.92073 -3.40089,6.85489 -5.21648,9.53683 l 2.5287,1.69643 c 11.94149,-11.64087 20.60336,-24.46094 26.70426,-38.52939 3.36974,-7.65735 6.44001,-18.17325 8.18662,-26.60858 l -2.01138,-1.06426 c -2.20941,3.07997 -6.96844,7.3476 -11.00568,7.3476 z"
       id="path26"
       inkscape:connector-curvature="0"
       style="clip-rule:evenodd;opacity:1;fill:#db1828;fill-opacity:1;fill-rule:evenodd;stroke-width:1.08809"
       sodipodi:nodetypes="sccccsccccccs" /><path
       id="path32"
       style="clip-rule:evenodd;opacity:1;fill:#55bb68;fill-opacity:1;fill-rule:evenodd;stroke-width:1.00342"
       d="m 427.34204,109.54575 c -1.48575,0.0175 -2.51501,1.06724 -3.82763,2.37985 L 315.46845,219.96935 c -25.60515,24.20631 -45.28878,58.36289 -45.28878,96.45196 0,10.38574 0.1136,26.77639 3.88891,38.15026 -3.66146,-0.43224 -7.55155,-0.66009 -11.30639,-0.66009 -46.36648,0 -90.62754,36.38164 -90.62754,90.61494 0,49.60446 38.04911,90.3172 93.93161,90.3172 38.96513,0 87.17838,-35.23918 87.17838,-86.95602 0,-0.78324 -0.0274,-1.55558 -0.0274,-2.33481 15.05869,7.32019 38.62942,10.34211 53.46905,10.34211 68.80765,0 133.31374,-55.09357 133.31374,-137.18382 0,-67.52205 -54.07807,-132.76298 -138.01004,-132.76298 -2.3565,0 -4.32947,0.4701 -4.75314,0.4701 l 65.90291,-66.08571 c 2.80337,-2.81111 0.73984,-4.28808 -0.64316,-4.53643 l -34.48786,-6.19155 c -0.23299,-0.0418 -0.45444,-0.0613 -0.66669,-0.0588 z m -20.65581,106.76824 c 52.23659,0 103.0422,44.25038 103.0422,100.10732 0,64.5938 -47.36927,109.37327 -103.0422,109.37327 -33.42059,0 -46.75069,-10.54769 -61.88047,-19.28371 -7.50707,-16.46112 -19.43519,-29.83422 -33.66244,-38.03937 -11.3928,-26.08917 -10.35566,-36.83061 -10.35566,-52.05019 0,-55.85694 48.42112,-100.10732 105.89857,-100.10732 z m -7.58094,34.83011 c -8.34595,8.33686 -11.02936,19.17664 -2.4859,29.14321 -1.71868,-18.08607 15.68391,-30.74267 31.44827,-24.96482 -9.19179,-12.48106 -24.38481,-8.75095 -28.96237,-4.17839 z m 43.86964,1.2137 c 0,0 -2.20945,18.72653 -8.33403,28.49363 -5.5449,9.14318 -14.80502,21.61165 -24.16835,28.86792 -18.93812,14.67639 -32.3663,18.99589 -48.50326,18.50055 -21.63237,-0.66403 -31.37533,-24.83952 -28.12719,-40.61251 -4.25882,9.51525 -7.46216,20.92062 -7.46216,32.04848 0,40.32848 31.65019,79.58404 77.28177,79.58404 41.04848,0 79.57642,-29.15583 79.57642,-79.9141 0,-30.30904 -18.12969,-54.50952 -40.2632,-66.96801 z m -80.41129,25.92591 c -15.21262,11.65103 -4.47848,29.09415 -3.10506,29.65428 0,0 -2.07435,-12.88664 9.44338,-21.61297 9.70425,-7.35235 22.01108,-3.59889 22.01108,-3.59889 -2.69212,-4.00445 -16.06122,-13.85366 -28.3494,-4.44242 z m -96.4377,91.33769 c 5.3967,0 12.82736,1.45731 12.82736,1.45731 3.47527,7.5731 5.30327,14.14797 7.43225,21.36656 -5.91383,-5.59848 -14.95263,-10.12843 -22.94527,-10.12843 -8.65915,0 -16.99023,3.93577 -22.69245,10.28166 -5.73766,-5.15061 -10.99903,-8.75044 -17.62413,-12.04888 13.52609,-5.66868 19.05485,-10.92822 43.00224,-10.92822 z m 19.73233,3.5091 c 27.91828,8.23724 47.21055,31.59247 51.04839,61.20658 0.38593,3.16035 0.57845,6.44957 0.57845,9.61738 0,30.33538 -17.87019,58.43057 -45.59508,69.51334 -3.92175,-4.89122 -6.07502,-10.44191 -8.60251,-16.24642 -2.337,-5.36703 -3.63653,-10.67391 -4.7505,-16.47675 2.81896,-4.35188 5.4848,-10.5483 7.60294,-15.46222 1.42326,-3.30186 2.5701,-7.20777 3.65736,-10.599 3.51323,-10.95801 5.45035,-22.86207 5.45035,-34.34736 0,-8.82134 -0.61683,-17.26307 -2.67491,-25.3656 -2.14091,-8.42863 -3.07761,-14.98635 -6.71449,-21.83995 z m -67.70488,10.76219 c 8.09133,3.60724 13.83523,8.36221 19.31871,12.99527 -3.11166,4.82217 -4.8074,11.40254 -4.8074,16.86292 0,2.31031 0.59816,5.45388 1.01112,7.40028 -3.22447,-2.14981 -7.31945,-4.58774 -11.01933,-6.20944 -7.39788,-3.33484 -15.62529,-4.96147 -23.9442,-4.96147 -0.90702,0 -1.85539,0.0268 -2.77267,0.0921 4.85632,-9.17596 12.90875,-19.77752 22.21377,-26.17962 z m 44.95981,3.97649 c 13.21477,0 25.92157,9.85593 25.92157,26.42026 0,4.58711 -1.84538,9.68235 -3.69409,12.97633 0,0 -2.17399,-3.62729 -7.83702,-3.62729 -8.9344,0 -12.49305,10.00169 -10.12858,15.78469 l -0.83775,0.0894 c -0.47369,-3.31919 -3.29224,-13.03719 -4.50744,-15.90964 -4.19375,-9.91288 -10.2001,-20.06429 -17.19901,-27.44122 4.53326,-4.88002 11.38595,-8.29252 18.28232,-8.29252 z m -21.5998,13.06956 c 6.29231,6.40373 11.61073,16.35412 15.32497,24.87559 1.74982,4.0146 3.22165,9.22107 4.34495,13.92286 -12.40191,-1.35203 -22.98087,-12.46105 -22.98087,-25.4262 0,-4.01691 1.39716,-9.92079 3.31095,-13.37225 z m -48.23928,14.75028 c 23.58575,-2.42655 41.01505,11.5321 46.60666,18.77733 -1.01864,13.07026 1.69459,31.6895 14.11828,46.14973 0,9.0208 -6.44392,24.16019 -16.56151,34.3366 -2.13939,-0.78379 -6.70877,-3.31177 -8.59646,-4.27004 -24.26966,-12.49489 -40.98614,-37.64967 -40.98614,-66.72818 0,-5.82149 0.71842,-11.55386 2.05892,-16.89015 0.76812,-3.49532 2.09526,-8.10577 3.36025,-11.37529 z m 84.17923,12.52701 c 3.8499,0 6.8889,3.01417 6.8889,6.75573 0,3.93755 -3.03997,6.9807 -6.8889,6.9807 -3.70808,0 -6.69661,-3.04315 -6.69612,-6.9807 4.7e-4,-3.74156 2.98804,-6.75573 6.69612,-6.75573 z m 10.63078,10.16215 c -1.46448,7.22019 -4.07059,17.96641 -6.90352,24.80403 -8.45032,20.36622 -16.65655,28.81119 -26.08196,38.56095 0,0 4.33656,-6.85181 6.92392,-13.76448 3.92611,-10.48943 6.08484,-18.58736 6.08484,-32.6631 0,-3.40481 -0.26294,-6.82933 -0.70199,-10.16416 l 4.08357,-0.76175 c 1.44344,1.29807 3.83195,1.91136 5.90236,1.91136 3.92919,0 8.8746,-2.39961 10.69278,-7.92285 z m -35.27505,5.13633 c 2.35008,0.79871 6.47498,1.77388 9.13453,1.9521 0.53881,3.27696 0.7814,5.3514 0.7814,9.9151 0,11.06261 -3.03641,22.25814 -3.03641,22.25814 1.01559,-6.60535 -0.41803,-15.64905 -1.37269,-19.94096 -0.74289,-3.33988 -1.95622,-6.5661 -3.36152,-9.79621 -0.55219,-1.26921 -1.53378,-3.14158 -2.14531,-4.38817 z m -8.88489,-3.72943 c 5.03116,4.22955 11.38444,22.85812 10.76996,34.46671 -5.57067,-5.10861 -11.60663,-26.74337 -10.76996,-34.46671 z m 30.42815,47.70658 c 1.04033,4.0645 2.05114,7.48038 3.57613,11.34771 2.29948,5.83142 4.85284,11.40136 8.55085,16.59488 -7.83442,2.33486 -15.63917,4.05276 -23.54496,4.11972 -7.05124,-0.28277 -11.39044,-0.83509 -17.54807,-2.29015 6.38459,-4.28657 11.01849,-8.92576 16.82277,-14.66649 4.54797,-4.49818 8.5096,-9.71153 12.14328,-15.10567 z"
       sodipodi:nodetypes="sccscsssscsssccccsssssccsssccsccsscssscscscssccsccsccscscsssscccsccsccccccscccsccssccscccsccsccsscccssccscccccsscccscscccscsc" /><path
       d="m 129.87619,595.20499 c -17.12465,0 -31.054677,13.89177 -31.054677,30.99876 0,17.10698 13.930027,31.01882 31.054677,31.01882 h 31.20528 v -0.349 c 0,-5.72339 -4.65138,-10.35365 -10.37098,-10.35365 h -20.8343 c -9.18629,0 -17.17484,-6.12654 -19.57934,-14.96886 0.92364,0 30.39707,0 30.39707,0 5.72763,0 10.37499,-4.6463 10.37499,-10.34562 v -0.35301 c 0,0 -39.84842,0 -40.77206,0 2.41554,-8.83831 10.39305,-14.9448 19.57934,-14.9448 h 20.8343 c 5.7196,0 10.37098,-4.65031 10.37098,-10.35364 v -0.349 z"
       id="path42"
       inkscape:connector-curvature="0"
       style="clip-rule:evenodd;fill:#55bb68;fill-rule:evenodd;stroke-width:1.00342" /><path
       d="m 50.713466,595.20499 c -17.11461,0 -31.042631,13.89177 -31.042631,30.99876 0,17.10698 13.928021,31.01882 31.042631,31.01882 h 10.062753 c 17.110593,0 31.038615,-13.91083 31.038615,-31.01882 0,-1.70789 -0.133528,-3.36865 -0.407611,-5.05748 l -0.05923,-0.29384 h -51.6149 v 0.35301 c 0,5.70032 4.649367,10.34562 10.374986,10.34562 0,0 29.32083,0 30.240462,0 -2.409519,8.84132 -10.385025,14.96886 -19.571315,14.96886 h -10.06376 c -11.204261,0 -20.320274,-9.10407 -20.320274,-20.31617 0,-11.18804 9.116013,-20.29612 20.320274,-20.29612 h 20.822257 c 5.725619,0 10.372977,-4.65031 10.372977,-10.35364 v -0.349 z"
       id="path44"
       inkscape:connector-curvature="0"
       style="clip-rule:evenodd;fill:#55bb68;fill-rule:evenodd;stroke-width:1.00342" /><path
       d="m 281.97304,605.42525 c -4.99674,-6.50262 -12.50641,-10.24032 -20.67568,-10.24032 -14.37881,0 -26.07601,11.69749 -26.07601,26.0546 v 35.98204 h 0.36845 c 5.72562,0 10.40209,-4.65032 10.40209,-10.35365 v -25.62839 c 0,-8.42211 6.87115,-15.28978 15.31451,-15.28978 4.02791,0 7.83796,1.55546 10.71231,4.39158 2.88239,2.82408 4.49978,6.6009 4.57708,10.62442 v 36.25582 h 0.35541 c 5.74168,0 10.40008,-4.65032 10.40008,-10.35365 V 620.9497 c 0.15462,-8.27369 7.01371,-14.99995 15.29643,-14.99995 8.43532,0 15.31048,6.86767 15.31048,15.28978 v 25.62839 c 0,5.70433 4.67848,10.35365 10.40411,10.35365 h 0.37246 l -0.02,-35.98204 c 0,-14.35711 -11.69118,-26.0546 -26.06799,-26.0546 -8.18533,0 -15.68294,3.7377 -20.67366,10.24032 z"
       id="path46"
       inkscape:connector-curvature="0"
       style="clip-rule:evenodd;fill:#55bb68;fill-rule:evenodd;stroke-width:1.00342" /><path
       d="m 412.34306,626.20375 v 31.01882 h 0.37246 c 5.71057,0 10.36495,-4.65032 10.36495,-10.35365 v -20.66417 c 0,-11.17299 9.11802,-20.25299 20.33834,-20.25299 11.20427,0 20.31827,9.081 20.31827,20.25299 v 20.66417 c 0,5.70433 4.65941,10.35365 10.36093,10.35365 h 0.35641 v -31.01882 c 0,-17.10799 -13.93003,-31.01882 -31.03661,-31.01882 -17.14473,0 -31.07475,13.91183 -31.07475,31.01882 z"
       id="path48"
       inkscape:connector-curvature="0"
       style="clip-rule:evenodd;fill:#55bb68;fill-rule:evenodd;stroke-width:1.00342" /><path
       d="m 339.46917,626.20375 v 31.01882 h 0.34536 c 5.72964,0 10.36495,-4.65032 10.36495,-10.35365 0,0 0,-9.78602 0,-10.46797 0.70177,0 39.97793,0 40.66063,0 0,0.68195 0,10.46797 0,10.46797 0,5.70433 4.6594,10.35365 10.36494,10.35365 h 0.36846 v -31.01882 c 0,-17.10799 -13.93003,-31.01882 -31.04866,-31.01882 -17.12565,0 -31.05568,13.91183 -31.05568,31.01882 z m 31.05669,-20.25299 c 11.11792,0 20.15762,8.94762 20.31425,19.9792 -0.72185,0 -39.9197,0 -40.63754,0 0.13453,-11.03158 9.19733,-19.9792 20.32329,-19.9792 z"
       id="path50"
       inkscape:connector-curvature="0"
       style="clip-rule:evenodd;fill:#55bb68;fill-rule:evenodd;stroke-width:1.00342" /><path
       d="m 527.44676,595.20499 c -2.76893,0 -5.38025,1.09313 -7.32594,3.03569 0,0 -16.20903,16.19136 -16.69897,16.68076 -0.48993,-0.4894 -16.69897,-16.68076 -16.69897,-16.68076 -1.94167,-1.94357 -4.55298,-3.03569 -7.31791,-3.03569 -2.76894,0 -5.38025,1.09313 -7.32995,3.03569 l -0.25099,0.25473 c 0,0 26.04789,26.00045 26.24065,26.192 0,0.28983 0,32.53416 0,32.53416 h 0.37248 c 5.70654,0 10.36093,-4.65032 10.36093,-10.35365 0,0 0,-21.89068 0,-22.18051 0.19175,-0.19155 26.22058,-26.192 26.22058,-26.192 l -0.25501,-0.25473 c -1.94067,-1.94256 -4.55198,-3.03569 -7.3169,-3.03569 z"
       id="path52"
       inkscape:connector-curvature="0"
       style="clip-rule:evenodd;fill:#55bb68;fill-rule:evenodd;stroke-width:1.00342" /><path
       d="m 169.31098,595.20499 v 62.01758 h 0.3554 c 5.72562,0 10.37499,-4.65032 10.37499,-10.35365 0,0 0,-21.1305 0,-22.72507 1.15857,1.14428 28.80679,28.31508 28.80679,28.31508 5.25476,5.23398 14.31053,5.19086 14.7061,5.19086 h 4.72968 l -24.54998,-24.45703 c -0.40761,-0.40717 -0.76703,-0.72106 -1.0903,-0.97579 0.70377,0.0592 1.64148,0.10229 2.91752,0.11733 h 0.29216 -0.0513 c 10.13404,0 18.67377,-8.62269 18.67377,-18.81989 0,-10.10293 -8.22951,-18.31043 -18.34046,-18.31043 h -36.82442 z m 36.82547,10.39275 c 4.28091,0 7.92029,3.79186 7.92029,8.25063 0,4.41464 -4.41745,8.89246 -8.7596,8.89246 0,0 -24.56404,0 -25.25577,0 0,-0.66189 0.008,-16.46916 0.008,-17.14309 0.68972,0 26.08705,0 26.08705,0 z"
       id="path54"
       inkscape:connector-curvature="0"
       style="clip-rule:evenodd;fill:#55bb68;fill-rule:evenodd;stroke-width:1.00342" /><path
       d="m 235.45126,576.17349 h -7.20647 l -1.34934,-7.61179 c -0.57225,-3.14601 -1.17262,-6.59689 -1.28005,-8.24662 h -0.0371 c -0.0803,1.31978 -0.64556,4.82281 -1.2901,8.24662 l -1.39049,7.61179 h -7.34301 l -6.36113,-26.23512 h 7.10808 l 1.48085,7.06724 c 1.23689,5.91493 1.46277,8.46524 1.50193,9.45708 h 0.0411 c 0.14558,-2.12308 0.60238,-5.39044 1.32122,-9.26052 l 1.34331,-7.2628 h 7.50465 l 1.69268,8.76309 c 0.36845,1.99371 0.89855,4.51293 1.05316,7.7171 h 0.0371 c 0.15662,-2.33067 0.94473,-7.40821 1.48286,-9.98158 l 1.30415,-6.49861 h 7.20044 z"
       id="path56"
       inkscape:connector-curvature="0"
       style="clip-rule:evenodd;opacity:1;fill:#006dab;fill-rule:evenodd;stroke-width:1.00342" /><path
       d="m 256.12493,571.31257 c -2.78802,0 -4.40842,-1.65674 -4.40842,-8.3479 0,-5.00634 1.28006,-8.21452 4.33713,-8.21452 2.89444,0 4.1765,1.57451 4.1765,8.12827 10e-4,6.73328 -1.24491,8.43415 -4.10521,8.43415 z m -0.11947,5.31221 c 9.3911,0 11.75945,-7.05119 11.75945,-14.58476 0,-5.75448 -2.60028,-12.56698 -11.52252,-12.56698 -6.93539,0 -12.06165,4.90905 -12.06165,14.24378 0,7.86151 4.22971,12.90796 11.82472,12.90796 z"
       id="path58"
       inkscape:connector-curvature="0"
       style="clip-rule:evenodd;opacity:1;fill:#006dab;fill-rule:evenodd;stroke-width:1.00342" /><path
       d="m 280.92992,555.47021 c 2.11736,0 3.12735,0.59972 3.12735,2.48712 0,1.77107 -0.79614,2.84013 -3.08217,2.84013 h -1.9216 v -5.32825 h 1.87642 z m 11.75945,20.70328 c -0.85739,-1.96663 -3.09824,-6.83557 -3.95362,-8.58358 -0.64555,-1.3629 -1.73686,-2.56635 -2.64344,-2.82107 3.0882,-0.52852 5.4686,-2.82409 5.4686,-7.35707 0,-4.36049 -2.49787,-7.4744 -10.21234,-7.4744 h -9.03771 v 26.23512 h 6.74164 v -10.39276 c 1.47081,0 2.07621,0.32894 3.09623,3.0397 l 2.74484,7.35306 h 7.7958 z"
       id="path60"
       inkscape:connector-curvature="0"
       style="clip-rule:evenodd;opacity:1;fill:#006dab;fill-rule:evenodd;stroke-width:1.00342" /><polygon
       points="302.215,558.996 300.133,564.566 285.723,564.566 285.723,538.406 292.508,538.406 292.508,558.996 "
       id="polygon62"
       transform="matrix(1.0039661,0,0,1.0028716,10.517676,9.9862757)"
       style="clip-rule:evenodd;opacity:1;fill:#006dab;fill-rule:evenodd" /><path
       d="m 330.89631,562.35292 c 0,7.25878 -1.50194,8.19145 -3.39241,8.19145 h -2.25491 v -15.07416 h 2.08223 c 2.02801,0 3.56509,0.77923 3.56509,6.88271 z m 7.42031,0.21561 c 0,-5.32825 -1.30214,-8.95163 -4.28292,-11.00852 -2.10633,-1.46519 -4.44356,-1.62164 -6.25471,-1.62164 h -9.27063 v 26.23512 h 9.52564 c 3.545,0 5.65132,-1.17135 7.30184,-3.1771 2.39647,-2.81606 2.98078,-6.36121 2.98078,-10.42786 z"
       id="path64"
       inkscape:connector-curvature="0"
       style="clip-rule:evenodd;opacity:1;fill:#006dab;fill-rule:evenodd;stroke-width:1.00342" /><path
       d="m 363.62761,576.62478 c -3.25486,0 -6.19247,-0.9798 -8.59696,-3.62738 -2.08223,-2.29558 -3.01592,-5.71537 -3.01592,-9.43703 0,-3.28641 0.52206,-5.75848 1.81216,-8.13228 2.21977,-4.10576 6.01576,-5.95505 10.61594,-5.95505 2.67055,0 5.49872,0.76017 6.71753,1.93153 l -2.88238,4.9592 c -1.1646,-0.89356 -2.47076,-1.38296 -3.91045,-1.38296 -1.17263,0 -2.26294,0.28983 -2.94563,1.0149 -1.26702,1.31978 -1.69772,2.65962 -1.69772,5.75448 0,4.32138 0.19979,6.40534 1.2901,7.69403 0.87445,1.00689 1.94569,1.62967 3.35325,1.62967 1.69068,0 3.05507,-0.40717 4.51383,-1.73497 l 2.90649,4.59917 c -1.65455,1.55445 -4.32509,2.68669 -8.16024,2.68669 z"
       id="path66"
       inkscape:connector-curvature="0"
       style="clip-rule:evenodd;opacity:1;fill:#006dab;fill-rule:evenodd;stroke-width:1.00342" /><path
       d="m 395.65212,568.07631 c 0,2.26047 -0.0783,3.27136 -0.64355,4.32538 -1.0903,2.17824 -4.03193,4.22309 -9.23146,4.22309 -4.13333,0 -7.01974,-1.13224 -8.59295,-3.27538 -0.97686,-1.43811 -1.267,-2.07995 -1.267,-5.58198 v -17.82805 h 6.78078 v 17.12704 c 0,2.39386 0.73691,4.00748 3.1143,4.00748 2.41555,0 3.09824,-1.33984 3.09824,-3.91321 v -17.22131 h 6.74164 z"
       id="path68"
       inkscape:connector-curvature="0"
       style="clip-rule:evenodd;opacity:1;fill:#006dab;fill-rule:evenodd;stroke-width:1.00342" /><path
       d="m 410.39837,555.47021 c 1.6194,0 2.72577,0.40717 2.72577,2.5854 0,2.86019 -0.98791,3.42381 -3.11431,3.42381 h -1.94869 v -6.00921 z m 10.0517,2.62451 c 0,-5.9741 -3.89437,-8.15635 -10.57678,-8.15635 h -8.55378 v 26.23512 h 6.74163 v -9.33974 h 2.1023 c 8.59596,10e-4 10.28663,-4.86894 10.28663,-8.73903 z"
       id="path70"
       inkscape:connector-curvature="0"
       style="clip-rule:evenodd;opacity:1;fill:#006dab;fill-rule:evenodd;stroke-width:1.00342" /><polygon
       points="117.422,564.566 117.422,555.113 123.146,555.113 125.389,549.41 117.422,549.41 117.422,544.133 127.1,544.133 129.234,538.449 109.152,538.449 109.152,564.566 "
       id="polygon72"
       transform="matrix(1.0039661,0,0,1.0028716,10.517676,9.9862757)"
       style="clip-rule:evenodd;opacity:1;fill:#006dab;fill-rule:evenodd" /><polygon
       points="131.939,538.449 131.918,564.566 140.053,564.566 140.053,538.449 "
       id="polygon74"
       transform="matrix(1.0039661,0,0,1.0028716,10.517676,9.9862757)"
       style="clip-rule:evenodd;opacity:1;fill:#006dab;fill-rule:evenodd" /><path
       d="m 182.01516,549.98149 -9.45936,26.192 h 7.93935 l 1.01602,-3.54114 h 9.23348 l 1.04914,3.54114 h 8.1753 l -9.48247,-26.192 z m 0.94574,17.62848 3.14342,-10.89419 3.28598,10.89419 z"
       id="path76"
       inkscape:connector-curvature="0"
       style="clip-rule:evenodd;opacity:1;fill:#006dab;fill-rule:evenodd;stroke-width:1.00342" /><polygon
       points="154.145,544.133 163.854,544.133 165.969,538.449 145.887,538.449 145.887,564.566 154.145,564.566 154.145,555.113 159.879,555.113 162.109,549.41 154.145,549.41 "
       id="polygon78"
       transform="matrix(1.0039661,0,0,1.0028716,10.517676,9.9862757)"
       style="clip-rule:evenodd;opacity:1;fill:#006dab;fill-rule:evenodd" /><path
       d="m 243.17477,675.37956 c -5.17244,0 -10.05975,2.10402 -13.76136,5.89989 -3.66247,3.75676 -5.68848,8.69691 -5.68848,13.91083 0,5.21795 2.02601,10.15809 5.68848,13.93089 3.70263,3.79989 8.58892,5.87583 13.76136,5.87583 h 8.30079 c 5.17243,0 10.06075,-2.07594 13.76337,-5.87583 3.67452,-3.7728 5.70052,-8.71294 5.70052,-13.93089 0,-5.21392 -2.026,-10.15407 -5.70052,-13.91083 -3.70262,-3.79587 -8.59094,-5.89989 -13.76337,-5.89989 z m -11.43919,19.81072 c 0,-6.40132 5.23568,-11.79577 11.44019,-11.79577 h 8.30079 c 6.2025,0 11.44722,5.39445 11.44722,11.79577 0,6.40535 -5.24572,11.79177 -11.44722,11.79177 h -8.30079 c -6.20451,0 -11.44019,-5.38642 -11.44019,-11.79177 z"
       id="path80"
       inkscape:connector-curvature="0"
       style="clip-rule:evenodd;fill:#55bb68;fill-rule:evenodd;stroke-width:1.00342" /><path
       d="m 295.42015,675.37956 c -5.17444,0 -10.06877,2.10402 -13.75934,5.89989 -3.6685,3.75676 -5.6945,8.69691 -5.6945,13.91083 0,5.21795 2.026,10.15809 5.6945,13.93089 3.69057,3.79989 8.5849,5.87583 13.75934,5.87583 h 8.29879 c 5.18047,0 10.05572,-2.07594 13.75735,-5.87583 3.67853,-3.7728 5.70654,-8.71294 5.70654,-13.93089 0,-5.21392 -2.02801,-10.15407 -5.70654,-13.91083 -3.70263,-3.79587 -8.59696,-5.89989 -13.75735,-5.89989 z m -11.43717,19.81072 c 0,-6.40132 5.23568,-11.79577 11.43819,-11.79577 h 8.29877 c 6.2005,0 11.43618,5.39445 11.43618,11.79577 0,6.40535 -5.23568,11.79177 -11.43618,11.79177 h -8.29877 c -6.20251,0 -11.43819,-5.38642 -11.43819,-11.79177 z"
       id="path82"
       inkscape:connector-curvature="0"
       style="clip-rule:evenodd;fill:#55bb68;fill-rule:evenodd;stroke-width:1.00342" /><path
       d="m 347.24288,675.37956 c -5.18448,0 -10.07078,2.10402 -13.75333,5.89989 -3.68255,3.75676 -5.71056,8.69691 -5.71056,13.91083 0,5.21795 2.02801,10.15809 5.71056,13.93089 3.68255,3.79989 8.56885,5.87583 13.75333,5.87583 h 16.02832 c 6.37318,0 11.73435,-5.54287 11.73435,-12.12472 0,-6.43242 -5.26278,-11.68947 -11.73435,-11.68947 0,0 -25.34211,0 -26.74667,0 1.71378,-4.61822 6.0238,-7.7883 10.71835,-7.7883 h 17.2401 c 4.12931,0 7.49863,-3.36163 7.49863,-7.48644 v -0.52851 z m 16.02731,23.79915 c 2.04709,0 3.72171,1.65273 3.72171,3.69457 0,2.16621 -1.76899,4.10977 -3.72171,4.10977 h -16.02831 c -4.69455,0 -9.00458,-3.16907 -10.71835,-7.80334 1.3895,-10e-4 26.74666,-10e-4 26.74666,-10e-4 z"
       id="path84"
       inkscape:connector-curvature="0"
       style="clip-rule:evenodd;fill:#55bb68;fill-rule:evenodd;stroke-width:1.00342" /><path
       d="m 178.55449,675.37956 v 0.52851 c 0,4.12481 3.35727,7.48644 7.49461,7.48644 h 21.77904 c 2.14346,0 3.89437,1.75502 3.89437,3.89415 0,2.13912 -1.75091,3.89415 -3.89437,3.89415 h -19.55927 c -6.56293,0 -11.91407,5.32826 -11.91407,11.88603 V 714.998 h 43.39644 v -0.52149 c 0,-4.12481 -3.36832,-7.49446 -7.51168,-7.49446 0,0 -26.85609,0 -27.86207,0 0,-0.81834 0,-3.91321 0,-3.91321 0,-2.13511 1.74891,-3.86607 3.89238,-3.86607 h 19.55927 c 6.57698,0 11.9221,-5.35934 11.9221,-11.91311 0,-6.56179 -5.34512,-11.9091 -11.9221,-11.9091 h -29.27465 z"
       id="path86"
       inkscape:connector-curvature="0"
       style="clip-rule:evenodd;fill:#55bb68;fill-rule:evenodd;stroke-width:1.00342" /></g></svg>
